<?xml version="1.0" encoding="iso-8859-1"?>
<!-- Generator: Adobe Illustrator 19.0.0, SVG Export Plug-In . SVG Version: 6.00 Build 0)  -->
<svg version="1.1" id="Layer_1" xmlns="http://www.w3.org/2000/svg" xmlns:xlink="http://www.w3.org/1999/xlink" x="0px" y="0px"
	 viewBox="0 0 512 512" style="enable-background:new 0 0 512 512;" xml:space="preserve">
<g>
	<g>
		<path d="M255.999,50.695v30.417c48.817,0,88.532,39.715,88.532,88.531h30.417C374.948,104.055,321.588,50.695,255.999,50.695z"/>
	</g>
</g>
<g>
	<g>
		<path d="M375.816,49.547C343.778,17.584,301.247,0,256.003,0c-0.133,0-0.274,0-0.407,0c-45.332,0.105-87.867,17.776-119.77,49.756
			c-31.903,31.98-49.472,74.557-49.472,119.89c0,44.792,17.298,87.042,48.707,118.968l2.464,2.5
			c19.911,20.983,30.866,48.894,30.866,78.689v11.208c-8.389,4.559-14.096,13.452-14.096,23.651v21.94
			c0,13.197,9.557,24.198,22.112,26.463v12.108c0,25.82,21.007,46.827,46.827,46.827h65.529c25.82,0,46.827-21.007,46.827-46.827
			v-12.108c12.555-2.265,22.112-13.266,22.112-26.463v-21.94c0-10.2-5.707-19.093-14.096-23.651v-11.208
			c0-29.737,10.91-57.594,30.748-78.564l2.582-2.625c31.41-31.926,48.707-74.177,48.707-118.969
			C425.644,124.257,407.948,81.604,375.816,49.547z M305.174,465.173c0,9.048-7.362,16.41-16.41,16.41h-65.529
			c-9.048,0-16.41-7.362-16.41-16.41v-11.673h98.349V465.173z M327.286,423.082H184.712v-14.901h142.574V423.082z M240.79,250.931
			h-3.667l-13.987-62.229h17.655L240.79,250.931L240.79,250.931z M356.1,266.414l-0.757,0.756c-0.741,0.739-1.476,1.486-2.2,2.239
			c-25.764,26.748-39.953,62.401-39.953,100.394v7.961h-41.982V281.35h28.006l27.662-123.063H185.122l27.663,123.063h28.006v96.415
			h-41.982v-7.961c0-37.993-14.189-73.646-39.951-100.392c-0.726-0.754-1.461-1.501-2.202-2.241l-0.718-0.716
			c-25.265-26.101-39.165-60.434-39.165-96.808c0-37.222,14.415-72.171,40.589-98.408s61.086-40.734,98.307-40.821
			c0.112,0,0.222,0,0.334,0c37.13,0,72.04,14.433,98.331,40.663c26.371,26.31,40.894,61.314,40.894,98.564
			C395.227,206.002,381.341,240.318,356.1,266.414z M271.208,250.931v-62.229h0h17.654l-13.987,62.229H271.208z"/>
	</g>
</g>
<g>
</g>
<g>
</g>
<g>
</g>
<g>
</g>
<g>
</g>
<g>
</g>
<g>
</g>
<g>
</g>
<g>
</g>
<g>
</g>
<g>
</g>
<g>
</g>
<g>
</g>
<g>
</g>
<g>
</g>
</svg>
